<?xml version="1.0" standalone="no"?>
<!DOCTYPE svg PUBLIC "-//W3C//DTD SVG 20010904//EN" "http://www.w3.org/TR/2001/REC-SVG-20010904/DTD/svg10.dtd">
<svg version="1.0" xmlns="http://www.w3.org/2000/svg"
    width="1664.000000pt" height="404.000000pt" viewBox="0 0 1664.000000 404.000000"
    preserveAspectRatio="xMidYMid meet">

    <g transform="translate(0.000000,404.000000) scale(0.100000,-0.100000)"
        fill="currentColor" stroke="none">
        <path
            d="M15360 3590 c0 -28 2 -30 40 -30 l40 0 0 -250 0 -250 30 0 30 0 0
            250 0 250 45 0 c43 0 45 1 45 30 l0 30 -115 0 -115 0 0 -30z" 
        />
        <path
            d="M15650 3340 l0 -280 30 0 30 0 2 213 3 212 43 -177 c59 -242 62 -250
            75 -245 7 2 35 98 64 213 l51 209 1 -212 1 -213 30 0 30 0 0 280 0 280 -40 0
            c-45 0 -35 23 -95 -222 -22 -86 -42 -155 -45 -153 -4 2 -26 87 -50 189 l-44
            186 -43 0 -43 0 0 -280z" 
         />
        <path
            d="M12965 3476 c-113 -37 -217 -125 -261 -221 -87 -190 -27 -383 145
            -463 185 -86 436 16 529 215 24 51 27 70 27 158 0 84 -4 107 -23 146 -31 63
            -86 117 -152 148 -65 31 -198 39 -265 17z" />
        <path
            d="M1100 3265 c0 -4 -592 -2698 -605 -2752 l-5 -23 1020 0 c561 0 1020
            2 1020 4 0 5 114 529 125 574 l5 22 -654 0 c-360 0 -657 3 -659 7 -3 5 12 82
            33 173 21 91 45 200 55 243 l17 77 644 0 644 0 5 23 c23 102 125 571 125 578
            0 5 -283 9 -640 9 -506 0 -640 3 -640 13 1 6 22 111 48 232 l48 220 662 3
            c364 1 662 4 662 7 0 4 114 528 125 573 l5 22 -1020 0 c-561 0 -1020 -2 -1020
            -5z" />
        <path
            d="M10126 3198 c-99 -451 -587 -2669 -591 -2686 l-5 -22 322 2 322 3
            303 1375 c166 756 303 1381 303 1388 0 9 -70 12 -319 12 l-319 0 -16 -72z" />
        <path
            d="M11337 3043 c-3 -5 -31 -128 -63 -275 l-58 -268 -168 0 c-92 0 -168
            -2 -168 -5 0 -3 -27 -125 -60 -272 -33 -146 -60 -267 -60 -269 0 -2 75 -4 166
            -4 l166 0 -5 -22 c-45 -183 -197 -902 -202 -958 -21 -231 94 -402 325 -482
            186 -64 478 -62 626 6 l54 25 0 259 0 260 -42 -15 c-60 -21 -169 -14 -205 13
            -90 68 -90 104 10 554 43 189 81 348 85 352 4 4 97 9 206 10 l199 3 58 255
            c32 140 58 263 59 273 0 16 -16 17 -200 17 -110 0 -200 2 -200 5 0 8 110 508
            116 528 5 16 -14 17 -315 17 -176 0 -322 -3 -324 -7z" />
        <path
            d="M8025 2535 c-131 -24 -246 -71 -357 -146 -461 -313 -671 -1109 -420
            -1594 49 -95 172 -218 267 -267 122 -64 208 -83 375 -83 136 0 150 2 231 31
            101 36 201 100 282 179 65 66 67 64 37 -65 -11 -47 -20 -88 -20 -92 0 -5 143
            -8 318 -8 l319 0 221 997 c122 549 222 1001 222 1006 0 4 -143 7 -318 7 l-318
            0 -24 -107 c-13 -60 -25 -111 -26 -114 -2 -4 -37 26 -76 66 -166 165 -446 240
            -713 190z m424 -570 c80 -21 156 -61 212 -113 l51 -47 -69 -305 c-68 -301 -70
            -306 -106 -342 -53 -54 -133 -104 -207 -128 -91 -31 -220 -25 -302 12 -201 93
            -276 326 -188 584 55 158 182 288 328 335 70 22 205 25 281 4z" />
        <path
            d="M14205 2535 c-131 -24 -246 -71 -357 -146 -461 -313 -671 -1109 -420
            -1594 49 -95 172 -218 267 -267 122 -64 208 -83 375 -83 136 0 150 2 231 31
            101 36 201 100 282 179 65 66 67 64 37 -65 -11 -47 -20 -88 -20 -92 0 -5 143
            -8 318 -8 l319 0 221 997 c122 549 222 1001 222 1006 0 4 -143 7 -318 7 l-318
            0 -24 -107 c-13 -60 -25 -111 -26 -114 -2 -4 -37 26 -76 66 -166 165 -446 240
            -713 190z m424 -570 c80 -21 156 -61 212 -113 l51 -47 -69 -305 c-68 -301 -70
            -306 -106 -342 -53 -54 -133 -104 -207 -128 -91 -31 -220 -25 -302 12 -201 93
            -276 326 -188 584 55 158 182 288 328 335 70 22 205 25 281 4z" />
        <path
            d="M3153 2488 c3 -7 98 -227 212 -490 l207 -476 -423 -479 c-232 -263
            -438 -495 -457 -515 l-36 -38 364 1 365 0 240 280 c132 154 250 289 261 300
            l21 20 41 -98 c23 -54 79 -188 125 -298 l84 -200 342 -3 c187 -1 341 -1 341 1
            0 2 -103 234 -230 516 l-229 513 406 462 c223 253 417 473 431 489 l26 27
            -365 0 -364 -1 -220 -260 c-121 -143 -225 -264 -231 -270 -7 -6 -44 74 -119
            261 l-109 270 -344 0 c-271 0 -343 -3 -339 -12z" />
        <path
            d="M5422 2458 c-19 -75 -112 -498 -112 -508 0 -7 135 -10 390 -10 l389
            0 -502 -489 -502 -490 -48 -223 c-26 -123 -47 -229 -47 -235 0 -10 176 -13
            844 -13 796 0 845 1 850 18 3 9 28 123 56 252 28 129 54 245 57 257 l5 23
            -407 0 c-224 0 -405 4 -403 9 2 4 230 231 508 503 l506 495 48 209 c26 115 50
            217 52 227 5 16 -39 17 -834 17 l-840 0 -10 -42z" />
        <path
            d="M12366 1518 c-119 -541 -220 -993 -223 -1006 l-5 -22 321 0 321 0 5
            23 c3 12 104 464 224 1005 l218 982 -322 0 -321 0 -218 -982z" />
    </g>
</svg>